<?xml version="1.0" encoding="UTF-8" standalone="no"?>
<!-- Created with Inkscape (http://www.inkscape.org/) -->

<svg
   width="113.79809mm"
   height="113.79823mm"
   viewBox="0 0 113.79809 113.79823"
   version="1.1"
   id="svg1"
   sodipodi:docname="logo2.svg"
   inkscape:version="1.3.2 (091e20ef0f, 2023-11-25, custom)"
   xml:space="preserve"
   xmlns:inkscape="http://www.inkscape.org/namespaces/inkscape"
   xmlns:sodipodi="http://sodipodi.sourceforge.net/DTD/sodipodi-0.dtd"
   xmlns:xlink="http://www.w3.org/1999/xlink"
   xmlns="http://www.w3.org/2000/svg"
   xmlns:svg="http://www.w3.org/2000/svg"><sodipodi:namedview
     id="namedview1"
     pagecolor="#ffffff"
     bordercolor="#cccccc"
     borderopacity="1"
     inkscape:showpageshadow="0"
     inkscape:pageopacity="1"
     inkscape:pagecheckerboard="0"
     inkscape:deskcolor="#d1d1d1"
     inkscape:document-units="mm"
     inkscape:zoom="0.5"
     inkscape:cx="5314"
     inkscape:cy="7219"
     inkscape:window-width="1920"
     inkscape:window-height="1017"
     inkscape:window-x="0"
     inkscape:window-y="35"
     inkscape:window-maximized="1"
     inkscape:current-layer="layer1"
     showguides="false"><inkscape:page
       x="-5.3516185e-05"
       y="-1.3592174e-06"
       width="113.79809"
       height="113.79823"
       id="page1"
       margin="0"
       bleed="0" /></sodipodi:namedview><defs
     id="defs1" /><g
     inkscape:label="Слой 1"
     inkscape:groupmode="layer"
     id="layer1"
     transform="translate(-1342.9863,-1861.1166)"><ellipse
       style="fill:#ff0000;fill-opacity:1;stroke:none;stroke-width:9.46387;stroke-linecap:round;stroke-dasharray:none;stroke-opacity:1;paint-order:markers stroke fill"
       id="path5-7-3-9-1-8-48"
       cx="-496.35907"
       cy="458.47891"
       rx="58.956947"
       ry="58.469353" /><g
       id="g31"
       transform="matrix(0.84910414,-0.4072588,0.4072588,0.84910414,-547.23609,-34.504221)"><ellipse
         style="fill:#ff0000;fill-opacity:1;stroke:none;stroke-width:11.368;stroke-linecap:round;stroke-dasharray:none;stroke-opacity:1;paint-order:markers stroke fill"
         id="path5-7-3-9-1-8-48-8"
         cx="177.62361"
         cy="495.4838"
         rx="70.819267"
         ry="70.233574"
         transform="scale(-1,1)" /><text
         xml:space="preserve"
         style="font-size:14.1111px;line-height:1.25;font-family:sans-serif;stroke-width:0.264583"
         id="text11"><textPath
           xlink:href="#path5-7-3-9-1-8-48-8"
           id="textPath31">Anarkiismaj komunumoj</textPath></text></g><text
       xml:space="preserve"
       style="font-size:14.1111px;line-height:1.25;font-family:sans-serif;stroke-width:0.103301"
       id="text10"
       inkscape:transform-center-x="-0.010178323"
       inkscape:transform-center-y="-54.185555"
       transform="rotate(-140.95347,-496.39476,458.58856)"><textPath
         xlink:href="#path5-7-3-9-1-8-48"
         id="textPath11"
         style="font-style:normal;font-variant:normal;font-weight:normal;font-stretch:normal;font-size:14.1111px;font-family:Roboto;-inkscape-font-specification:Roboto">La Edena Projekto</textPath></text><ellipse
       style="fill:#61c42b;fill-opacity:1;stroke:none;stroke-width:9.17152;stroke-linecap:round;stroke-dasharray:none;stroke-opacity:1;paint-order:markers stroke fill"
       id="path5-7-3-9-1-8-5-3-0-6-7-1-3-9"
       cx="1399.8854"
       cy="1918.0156"
       rx="56.899029"
       ry="56.899082"
       inkscape:export-filename="./logo.svg"
       inkscape:export-xdpi="118.30298"
       inkscape:export-ydpi="118.30298" /><circle
       style="fill:#ffffff;fill-opacity:1;stroke:none;stroke-width:8.27924;stroke-linecap:round;stroke-dasharray:none;stroke-opacity:1;paint-order:markers stroke fill"
       id="path5-7-3-9-1-8-5-3-0-6-7-1-5"
       cx="1399.8854"
       cy="1918.0156"
       r="51.363434"
       inkscape:export-filename="./favicon-site.png"
       inkscape:export-xdpi="118.30298"
       inkscape:export-ydpi="118.30298" /><g
       id="g10-0-3-7-8-6-7-35"
       transform="matrix(0.97495715,0,0,0.97495715,1883.7427,1468.6939)"><path
         id="path2-9-5-6-7-29-7-3-3-7-8-6"
         style="fill:#000000;fill-opacity:0.998423;stroke-width:1.90519;stroke-linecap:round;paint-order:markers stroke fill"
         d="m -502.90917,414.32335 c -31.3321,15.27537 -36.98836,47.2881 -20.20213,65.94946 16.79253,18.66836 40.38275,10.07606 53.9646,-2.80294 -0.85187,-0.88741 -4.52639,-4.74761 -4.75001,-5.01882 -11.88431,8.69711 -28.06853,14.58838 -41.08129,0.73769 -16.42771,-17.48556 -7.46728,-41.53649 12.93754,-57.87298 z"
         sodipodi:nodetypes="csccscc" /><rect
         style="fill:#000000;fill-opacity:1;stroke:#000000;stroke-width:1.90519;stroke-linecap:round;stroke-opacity:1;paint-order:markers stroke fill"
         id="rect3-8-7-4-09-9-4-3-1-8-3-5-2"
         width="7.2140684"
         height="17.912868"
         x="-674.85016"
         y="37.760864"
         ry="2.0525162"
         transform="rotate(-42.09828)" /></g><rect
       style="fill:#ffffff;stroke:none;stroke-width:2.23041;stroke-linecap:round;stroke-linejoin:round;stroke-opacity:1;paint-order:markers stroke fill"
       id="rect6-2-3-2-1-3-6-7-9"
       width="30.031069"
       height="30.518383"
       x="-399.11224"
       y="2325.6975"
       transform="rotate(-45)" /><path
       id="rect2-5-2-3-3-4-6-1-1"
       style="fill:#000000;fill-opacity:0.998423;stroke-width:2.14774;stroke-linecap:round;paint-order:markers stroke fill"
       d="m 1404.8351,1899.3782 9.1702,-9.1702 10.0221,10.0222 -9.1702,9.1701 z m 3.8142,9.8237 3.2032,3.2031 -1.9524,1.9524 -3.2032,-3.2032 z m -2.3191,5.35 5.7167,-5.7168 1.6878,1.6878 -5.7167,5.7168 z m -8.3344,-8.3344 5.7167,-5.7167 3.6256,3.6255 -5.7167,5.7168 z m -2.9999,-2.9999 5.7167,-5.7167 1.8728,1.8727 -5.7167,5.7168 z m -28.6935,34.6934 30.3891,-30.3892 10.0222,10.0221 -30.3892,30.3892 z m -2.9999,-2.9999 1.9634,-1.9635 1.8728,1.8728 -1.9635,1.9634 z m 22.2659,-22.266 8.1232,-8.1232 1.8728,1.8727 -8.1232,8.1233 z m -18.4046,18.4046 8.1233,-8.1233 1.8727,1.8728 -8.1232,8.1233 z m 9.1612,-9.1612 8.2385,-8.2385 1.8728,1.8727 -8.2385,8.2385 z m 23.8688,-42.5885 c -0.5847,0.722 -0.9567,1.8979 -0.8631,3.2938 0.076,1.1391 0.49,2.4164 1.423,3.6314 l -0.2613,0.2613 2.078,2.078 -45.9891,45.9891 19.5618,19.5618 53.9926,-53.9927 -19.5617,-19.5617 -6.6797,6.6797 -2.0781,-2.0781 -0.2426,0.2426 c -0.7342,-0.9973 -1.0381,-1.999 -1.0976,-2.8874 -0.076,-1.1323 0.2847,-2.0923 0.6116,-2.4957 z m -40.3142,55.288 50.6297,-50.6298 16.2742,16.2741 -50.6298,50.6298 z" /></g></svg>
